<svg width="350" height="88" viewBox="0 0 350 88" fill="none" xmlns="http://www.w3.org/2000/svg">
<path fill-rule="evenodd" clip-rule="evenodd" d="M6 0C2.68629 0 0 2.68629 0 6V69C0 72.3137 2.68629 75 6 75H69C72.3137 75 75 72.3137 75 69V6C75 2.68629 72.3137 0 69 0H6ZM230.229 8.52695C230.173 9.14172 230.145 10.0918 230.145 11.3772V51.2814C230.145 57.2615 230.927 61.6208 232.489 64.3593C233.773 66.6507 236.563 68.0759 240.86 68.6347C246.33 69.3054 249.79 69.1377 251.241 68.1317C252.357 67.3493 252.915 65.1976 252.915 61.6766C252.915 58.4351 252.357 56.4511 251.241 55.7246C250.683 55.3333 250.208 55.1098 249.818 55.0539C249.427 54.9421 248.646 54.8862 247.474 54.8862C246.357 54.8862 245.632 54.6347 245.297 54.1317C244.962 53.5729 244.795 52.2874 244.795 50.2755V11.4611C244.795 10.1756 244.739 9.19761 244.627 8.52695C244.572 7.85629 244.32 7.1018 243.874 6.26347C243.037 4.75449 240.916 4 237.512 4C233.94 4 231.764 4.75449 230.982 6.26347C230.592 7.1018 230.341 7.85629 230.229 8.52695ZM159.025 29.3174C158.969 29.9321 158.941 30.8822 158.941 32.1677V61.5928C158.941 62.9341 158.969 63.9122 159.025 64.5269C159.137 65.1417 159.388 65.8683 159.779 66.7066C160.56 68.2156 162.708 68.9701 166.224 68.9701C169.796 68.9701 171.945 68.2435 172.67 66.7904C173.117 65.9521 173.368 65.2255 173.424 64.6108C173.535 63.9401 173.591 62.9621 173.591 61.6766V32.3353C173.591 31.2735 173.563 30.4631 173.507 29.9042C173.451 28.2834 172.949 27.0818 172 26.2994C170.884 25.3493 168.987 24.8743 166.308 24.8743C162.736 24.8743 160.56 25.6008 159.779 27.0539C159.388 27.8922 159.137 28.6467 159.025 29.3174ZM170.494 18.3353C171.554 18 172.279 17.4411 172.67 16.6587C173.117 15.8204 173.368 15.0938 173.424 14.479C173.535 13.8084 173.591 12.8303 173.591 11.5449C173.591 10.2595 173.535 9.30938 173.424 8.69461C173.368 8.02395 173.117 7.26946 172.67 6.43114C171.945 4.92216 169.824 4.16766 166.308 4.16766C162.736 4.16766 160.56 4.92216 159.779 6.43114C159.388 7.21357 159.137 7.94012 159.025 8.61078C158.969 9.22555 158.941 10.1756 158.941 11.4611C158.941 12.7465 158.969 13.7246 159.025 14.3952C159.137 15.01 159.388 15.7365 159.779 16.5749C160.225 17.4132 160.978 18 162.039 18.3353C163.099 18.6707 164.494 18.8383 166.224 18.8383C168.01 18.8383 169.433 18.6707 170.494 18.3353ZM122.937 7.52096L107.45 7.43713C103.879 7.43713 101.702 8.19162 100.921 9.7006C100.474 10.5389 100.195 11.2655 100.084 11.8802C100.028 12.495 100 13.4731 100 14.8144V61.4251C100 63.8283 100.335 65.6168 101.005 66.7904C101.842 68.1876 103.962 68.8862 107.367 68.8862H122.686C131.224 68.8862 138.479 65.8403 144.451 59.7485C150.478 53.6567 153.492 46.3633 153.492 37.8683C153.492 29.3174 150.422 22.1357 144.283 16.3234C138.145 10.4551 131.029 7.52096 122.937 7.52096ZM133.819 49.6048C130.583 52.5669 126.955 54.0479 122.937 54.0479H114.817V22.3593H122.853C127.095 22.3593 130.778 23.8962 133.903 26.9701C137.084 29.988 138.675 33.7605 138.675 38.2874C138.675 42.8144 137.056 46.5868 133.819 49.6048ZM208.907 29.485C209.242 26.3553 211.447 24.7904 215.521 24.7904C217.697 24.7904 219.316 24.9581 220.376 25.2934C221.436 25.6287 222.162 26.2156 222.552 27.0539C222.999 27.8922 223.25 28.6467 223.306 29.3174C223.417 29.9321 223.473 30.8822 223.473 32.1677V61.509C223.473 62.7944 223.417 63.7725 223.306 64.4431C223.25 65.0579 223.027 65.7844 222.636 66.6228C221.855 68.0759 219.929 68.8024 216.86 68.8024C213.846 68.8024 211.809 68.4391 210.749 67.7126C209.745 66.9301 209.159 65.8124 208.991 64.3593C206.926 67.3214 203.466 68.8024 198.611 68.8024C193.811 68.8024 189.347 66.5948 185.217 62.1796C181.087 57.7645 179.022 52.6507 179.022 46.8383C179.022 40.9701 181.087 35.8563 185.217 31.497C189.403 27.0818 193.979 24.8743 198.946 24.8743C200.843 24.8743 202.573 25.2096 204.136 25.8802C205.698 26.5509 206.787 27.1936 207.401 27.8084C208.015 28.3673 208.517 28.9261 208.907 29.485ZM193.672 46.9222C193.672 48.7665 194.397 50.4431 195.848 51.9521C197.299 53.4052 199.057 54.1317 201.122 54.1317C203.187 54.1317 204.889 53.3773 206.229 51.8683C207.624 50.3593 208.321 48.7106 208.321 46.9222C208.321 45.0778 207.652 43.3733 206.312 41.8084C205.029 40.2435 203.271 39.4611 201.039 39.4611C198.862 39.4611 197.076 40.2435 195.681 41.8084C194.342 43.3733 193.672 45.0778 193.672 46.9222ZM256.276 46.9222C256.276 40.2156 258.62 34.6826 263.307 30.3234C267.995 25.9641 273.353 23.7844 279.38 23.7844C285.407 23.7844 290.737 25.9641 295.369 30.3234C300.001 34.6267 302.317 40.1317 302.317 46.8383C302.317 51.477 301.117 55.6128 298.718 59.2455C296.318 62.8224 293.388 65.477 289.928 67.2096C286.523 68.8862 282.98 69.7246 279.296 69.7246C275.613 69.7246 272.041 68.8303 268.581 67.0419C265.121 65.1976 262.191 62.515 259.792 58.994C257.448 55.4172 256.276 51.3932 256.276 46.9222ZM273.771 52.9581C275.557 54.2994 277.371 54.9701 279.213 54.9701C281.054 54.9701 282.896 54.2715 284.738 52.8743C286.579 51.4771 287.5 49.4092 287.5 46.6707C287.5 43.9321 286.635 41.8922 284.905 40.5509C283.175 39.2096 281.306 38.5389 279.296 38.5389C277.287 38.5389 275.418 39.2375 273.688 40.6347C271.958 42.0319 271.093 44.0998 271.093 46.8383C271.093 49.521 271.986 51.5609 273.771 52.9581ZM325.556 67.6287C330.188 67.6287 333.565 66.2315 335.685 63.4371V65.9521C335.685 68.2994 335.016 70.3114 333.676 71.988C332.337 73.6647 330.607 74.503 328.486 74.503C325.361 74.503 322.459 73.4691 319.78 71.4012C318.943 70.7305 318.134 70.3952 317.352 70.3952C316.571 70.3952 315.874 70.6188 315.26 71.0659C314.702 71.513 313.892 72.3234 312.832 73.497C311.158 75.1737 310.321 77.1018 310.321 79.2814C310.321 80.9581 312.246 82.8303 316.097 84.8982C319.948 86.9661 323.994 88 328.235 88C333.816 88 338.838 86.016 343.303 82.0479C347.768 78.1357 350 72.9661 350 66.5389V31.8323C350 30.5469 349.944 29.5968 349.833 28.982C349.777 28.3673 349.526 27.6687 349.079 26.8862C348.689 26.0479 347.991 25.4611 346.986 25.1258C345.982 24.7904 344.391 24.6228 342.215 24.6228C340.038 24.6228 338.448 25.0419 337.443 25.8802C336.495 26.6627 335.936 27.8363 335.769 29.4012C335.434 28.8982 334.96 28.3673 334.346 27.8084C333.788 27.1936 332.728 26.5509 331.165 25.8802C329.602 25.1537 327.872 24.7904 325.975 24.7904C321.12 24.7904 316.655 26.9421 312.581 31.2455C308.507 35.5489 306.47 40.5509 306.47 46.2515C306.47 51.9521 308.479 56.9541 312.497 61.2575C316.571 65.505 320.924 67.6287 325.556 67.6287ZM322.877 51.1976C321.482 49.7445 320.785 48.1238 320.785 46.3353C320.785 44.491 321.454 42.8144 322.794 41.3054C324.133 39.7964 325.891 39.0419 328.068 39.0419C330.244 39.0419 331.974 39.8244 333.258 41.3892C334.541 42.8982 335.183 44.5469 335.183 46.3353C335.183 48.0679 334.513 49.6886 333.174 51.1976C331.835 52.6507 330.132 53.3773 328.068 53.3773C326.059 53.3773 324.328 52.6507 322.877 51.1976Z" fill="url(#paint0_linear_196_16)"/>
<g filter="url(#filter0_i_196_16)">
<path d="M23.3456 15.4111L34.4998 15.4721C40.3282 15.4721 45.4531 17.6061 49.8746 21.8741C54.2961 26.1014 56.5069 31.3246 56.5069 37.5436C56.5069 43.722 54.3363 49.0265 49.9952 53.4571C45.6943 57.8876 40.4689 60.1029 34.319 60.1029H23.2853C20.8334 60.1029 19.3059 59.5948 18.703 58.5786C18.2207 57.725 17.9795 56.4243 17.9795 54.6765V20.7766C17.9795 19.801 17.9996 19.0897 18.0398 18.6426C18.1202 18.1955 18.3212 17.6671 18.6427 17.0574C19.2055 15.9599 20.7731 15.4111 23.3456 15.4111ZM34.4998 49.311C37.3939 49.311 40.0066 48.2339 42.338 46.0796C44.6693 43.8846 45.835 41.1409 45.835 37.8485C45.835 34.556 44.6894 31.8123 42.3983 29.6174C40.1473 27.3818 37.4944 26.264 34.4396 26.264H28.6514V49.311H34.4998Z" fill="white"/>
</g>
<defs>
<filter id="filter0_i_196_16" x="17.9795" y="15.4111" width="39.5273" height="45.6919" filterUnits="userSpaceOnUse" color-interpolation-filters="sRGB">
<feFlood flood-opacity="0" result="BackgroundImageFix"/>
<feBlend mode="normal" in="SourceGraphic" in2="BackgroundImageFix" result="shape"/>
<feColorMatrix in="SourceAlpha" type="matrix" values="0 0 0 0 0 0 0 0 0 0 0 0 0 0 0 0 0 0 127 0" result="hardAlpha"/>
<feOffset dx="1" dy="1"/>
<feGaussianBlur stdDeviation="2"/>
<feComposite in2="hardAlpha" operator="arithmetic" k2="-1" k3="1"/>
<feColorMatrix type="matrix" values="0 0 0 0 0 0 0 0 0 0 0 0 0 0 0 0 0 0 0.25 0"/>
<feBlend mode="normal" in2="shape" result="effect1_innerShadow_196_16"/>
</filter>
<linearGradient id="paint0_linear_196_16" x1="0" y1="0" x2="355" y2="88" gradientUnits="userSpaceOnUse">
<stop stop-color="#8987F1"/>
<stop offset="1" stop-color="#6377F3"/>
</linearGradient>
</defs>
</svg>
