<svg width="270" height="48" viewBox="0 0 270 48" fill="none" xmlns="http://www.w3.org/2000/svg">
<path d="M256.561 35.8196C256.144 34.8867 255.96 33.9784 256.009 33.0947C256.058 32.1864 256.254 31.3394 256.598 30.5539C256.966 29.7438 257.433 29.0196 257.997 28.3813C258.586 27.7185 259.212 27.1539 259.875 26.6875C260.538 26.1965 261.201 25.8283 261.864 25.5828C262.551 25.3373 263.152 25.2391 263.668 25.2882C264.183 25.3127 264.588 25.4969 264.883 25.8405C265.178 26.1842 265.276 26.712 265.178 27.4239C265.178 28.3813 264.871 29.216 264.257 29.9279C263.668 30.6398 263.005 31.2781 262.269 31.8427C261.557 32.4073 260.894 32.9228 260.28 33.3892C259.691 33.8311 259.396 34.2484 259.396 34.6412C259.396 34.8622 259.519 35.034 259.765 35.1567C260.035 35.2795 260.342 35.3777 260.685 35.4513C261.029 35.5004 261.373 35.5372 261.716 35.5618C262.06 35.5863 262.305 35.6109 262.453 35.6354C264.76 35.1445 266.491 34.8499 267.645 34.7517C268.799 34.6289 269.523 34.6412 269.817 34.7885C270.112 34.9113 270.051 35.1199 269.633 35.4145C269.24 35.6845 268.627 35.9791 267.792 36.2983C266.957 36.5928 265.988 36.8629 264.883 37.1084C263.778 37.3538 262.686 37.5011 261.606 37.5502C260.526 37.5748 259.519 37.4643 258.586 37.2188C257.678 36.9733 257.003 36.5069 256.561 35.8196ZM263.005 27.4239C262.514 27.4239 262.048 27.5589 261.606 27.829C261.164 28.099 260.759 28.4427 260.391 28.86C260.047 29.2528 259.752 29.6947 259.507 30.1856C259.261 30.6521 259.077 31.0939 258.955 31.5113C259.004 31.5358 259.04 31.5481 259.065 31.5481H259.176C259.519 31.5481 259.912 31.4008 260.354 31.1062C260.796 30.8116 261.213 30.4557 261.606 30.0384C261.999 29.5965 262.33 29.1423 262.6 28.6759C262.87 28.2095 263.005 27.7922 263.005 27.4239Z" fill="white"/>
<path d="M252.473 24.4044C251.909 24.4781 251.258 24.834 250.522 25.4723C249.785 26.086 249.073 26.847 248.386 27.7553C247.723 28.6391 247.158 29.6087 246.692 30.6643C246.226 31.6954 245.992 32.6528 245.992 33.5365C245.992 34.2484 246.177 34.7517 246.545 35.0463C246.913 35.3163 247.441 35.4513 248.128 35.4513C248.865 35.4513 249.577 35.3654 250.264 35.1936C250.976 34.9972 251.675 34.8008 252.363 34.6044C253.075 34.3835 253.774 34.1871 254.462 34.0152C255.174 33.8188 255.898 33.7206 256.634 33.7206C256.634 34.0643 256.585 34.3589 256.487 34.6044C256.389 34.8253 256.241 35.0708 256.045 35.3409C254.769 35.9546 253.455 36.5192 252.105 37.0347C250.755 37.5257 249.343 37.7712 247.87 37.7712C247.429 37.7712 246.962 37.6975 246.471 37.5502C245.98 37.3784 245.526 37.1452 245.109 36.8506C244.691 36.556 244.335 36.2001 244.041 35.7827C243.771 35.3654 243.636 34.899 243.636 34.3835C243.636 33.2788 243.795 32.2109 244.114 31.1799C244.434 30.1243 244.875 29.1301 245.44 28.1972C246.005 27.2644 246.68 26.4052 247.465 25.6196C248.275 24.834 249.147 24.1467 250.08 23.5575V23.5207C250.448 23.2998 250.865 23.0911 251.332 22.8947C251.823 22.6738 252.277 22.551 252.694 22.5265C253.112 22.4774 253.455 22.5756 253.725 22.8211C254.02 23.042 254.167 23.4716 254.167 24.1099C254.167 24.4044 254.143 24.7972 254.093 25.2882C254.044 25.7546 253.909 26.086 253.688 26.2824C253.492 26.4052 253.234 26.5156 252.915 26.6138C252.768 26.6629 252.621 26.6997 252.473 26.7243V24.4044Z" fill="white"/>
<path d="M227.913 35.3409C228.134 33.9416 228.551 32.6528 229.165 31.4745C229.779 30.2961 230.478 29.2774 231.264 28.4182C232.074 27.5344 232.946 26.8102 233.878 26.2456C234.811 25.681 235.72 25.325 236.603 25.1777C237.487 25.0059 238.297 25.0427 239.034 25.2882C239.795 25.5337 240.408 26.0247 240.875 26.7611C240.875 27.3257 240.74 27.8658 240.47 28.3813C240.224 28.8968 239.942 29.4124 239.623 29.9279C239.328 30.4434 239.046 30.9712 238.776 31.5113C238.53 32.0513 238.408 32.6282 238.408 33.242C238.408 33.8802 238.543 34.3957 238.813 34.7885C239.107 35.1568 239.611 35.3409 240.322 35.3409C240.912 35.3409 241.476 35.2549 242.016 35.0831C242.581 34.9113 243.146 34.8253 243.71 34.8253C243.808 34.8253 243.968 34.8376 244.189 34.8622C244.434 34.8622 244.594 34.8622 244.668 34.8622C244.373 35.2795 243.992 35.6354 243.526 35.93C243.06 36.2246 242.569 36.4824 242.053 36.7033C241.538 36.8997 240.998 37.047 240.433 37.1452C239.893 37.2434 239.39 37.2925 238.923 37.2925C238.481 37.2925 238.088 37.1943 237.745 36.9979C237.401 36.8015 237.107 36.5437 236.861 36.2246C236.616 35.9055 236.419 35.5495 236.272 35.1568C236.149 34.7394 236.088 34.3344 236.088 33.9416C235.72 34.3589 235.314 34.8008 234.873 35.2672C234.455 35.7091 234.001 36.1141 233.51 36.4824C233.044 36.8506 232.528 37.1575 231.964 37.403C231.424 37.6484 230.859 37.7712 230.27 37.7712C229.631 37.7712 229.079 37.538 228.613 37.0715C228.146 36.5806 227.913 36.0037 227.913 35.3409ZM230.343 34.1994C230.343 34.3957 230.343 34.6167 230.343 34.8622C230.368 35.1077 230.528 35.2672 230.822 35.3409C231.436 35.1936 232.135 34.8744 232.921 34.3835C233.707 33.8679 234.443 33.2788 235.13 32.616C235.818 31.9286 236.395 31.2044 236.861 30.4434C237.327 29.6579 237.561 28.9091 237.561 28.1972C237.561 28.1481 237.548 28.0745 237.524 27.9763C237.524 27.8535 237.524 27.7676 237.524 27.7185C236.689 27.7185 235.842 27.8904 234.983 28.234C234.124 28.5777 233.351 29.0564 232.663 29.6701C231.976 30.2593 231.411 30.9467 230.969 31.7322C230.552 32.5178 230.343 33.3402 230.343 34.1994Z" fill="white"/>
<path d="M218.081 34.3835C218.081 34.2116 218.093 33.9539 218.118 33.6102C218.167 33.2419 218.216 32.886 218.265 32.5423C218.314 32.1986 218.363 31.8918 218.412 31.6217C218.462 31.3272 218.511 31.143 218.56 31.0694L225.262 17.6658C225.36 17.4694 225.544 17.1994 225.814 16.8557C226.108 16.4875 226.415 16.1193 226.734 15.751C227.078 15.3583 227.41 15.0023 227.729 14.6832C228.072 14.3395 228.355 14.0695 228.576 13.8731C228.747 13.9222 228.87 14.0081 228.944 14.1308C229.017 14.2536 229.067 14.4009 229.091 14.5727C229.116 14.72 229.116 14.8673 229.091 15.0146C229.091 15.1619 229.091 15.2846 229.091 15.3828C229.091 15.5056 229.091 15.6774 229.091 15.8983C229.091 16.1193 229.079 16.2297 229.054 16.2297C228.809 16.8926 228.428 17.6781 227.913 18.5864C227.397 19.4947 226.82 20.4644 226.182 21.4954C225.544 22.5265 224.881 23.6066 224.194 24.7358C223.531 25.8405 222.917 26.9452 222.353 28.0499C221.812 29.1301 221.358 30.1734 220.99 31.1799C220.646 32.1864 220.475 33.1069 220.475 33.9416C220.475 34.3835 220.597 34.7394 220.843 35.0094C221.113 35.2549 221.395 35.4759 221.69 35.6723C221.984 35.8687 222.254 36.065 222.5 36.2614C222.77 36.4578 222.905 36.7279 222.905 37.0715C222.905 37.2925 222.807 37.4643 222.61 37.5871C222.414 37.6852 222.181 37.7343 221.911 37.7343C220.88 37.7343 219.984 37.452 219.223 36.8874C218.462 36.2983 218.081 35.4636 218.081 34.3835Z" fill="white"/>
<path d="M203.684 36.777C203.684 35.8687 203.929 34.8867 204.42 33.8311C204.936 32.7755 205.488 31.7199 206.077 30.6643C206.691 29.5842 207.243 28.5286 207.734 27.4976C208.25 26.4665 208.507 25.5091 208.507 24.6254C208.507 24.2817 208.421 23.9626 208.25 23.668C208.102 23.3488 207.931 23.042 207.734 22.7474C207.562 22.4283 207.403 22.1214 207.255 21.8268C207.108 21.5077 207.034 21.164 207.034 20.7958C207.034 20.3785 207.194 19.9734 207.513 19.5806C207.857 19.1879 208.237 18.9915 208.655 18.9915C208.655 19.2124 208.667 19.4824 208.692 19.8016C208.716 20.0962 208.765 20.3907 208.839 20.6853C208.937 20.9799 209.072 21.2499 209.244 21.4954C209.416 21.7164 209.649 21.8759 209.943 21.9741C210.189 21.3113 210.557 20.4521 211.048 19.3965C211.564 18.3164 212.165 17.1749 212.853 15.972C213.564 14.7446 214.325 13.5294 215.136 12.3265C215.97 11.0991 216.817 9.99439 217.676 9.01245C218.56 8.0305 219.444 7.23267 220.328 6.61895C221.211 6.00524 222.046 5.69838 222.832 5.69838C223.421 5.69838 223.924 5.82112 224.341 6.06661C224.783 6.3121 225.139 6.6435 225.409 7.06083C225.679 7.45361 225.876 7.90776 225.998 8.42328C226.121 8.9388 226.182 9.46659 226.182 10.0067C226.182 11.9951 225.753 13.8608 224.894 15.6038C224.059 17.3222 222.942 18.8442 221.543 20.1698C220.168 21.4709 218.597 22.5387 216.829 23.3734C215.062 24.1835 213.245 24.6745 211.38 24.8463L210.385 26.2824L206.114 36.777C205.918 37.1943 205.709 37.4643 205.488 37.5871C205.292 37.7098 205.034 37.7712 204.715 37.7712C204.027 37.7712 203.684 37.4398 203.684 36.777ZM222.353 8.09187C221.665 8.09187 220.954 8.34963 220.217 8.86515C219.505 9.35613 218.793 10.0067 218.081 10.8168C217.369 11.6269 216.694 12.5352 216.056 13.5417C215.418 14.5482 214.853 15.5547 214.362 16.5612C213.871 17.5431 213.478 18.4759 213.184 19.3597C212.914 20.2434 212.779 20.9676 212.779 21.5322C212.779 21.5813 212.779 21.7286 212.779 21.9741C212.803 22.2196 212.816 22.3792 212.816 22.4528C214.362 22.3792 215.811 21.9619 217.161 21.2008C218.511 20.4153 219.677 19.4211 220.659 18.2182C221.641 17.0153 222.414 15.6774 222.979 14.2045C223.543 12.707 223.826 11.2218 223.826 9.7489C223.826 9.06154 223.752 8.61967 223.605 8.42328C223.458 8.20234 223.04 8.09187 222.353 8.09187Z" fill="white"/>
<path d="M169.18 36.0773C169.18 35.8564 169.18 35.6845 169.18 35.5618C169.18 35.439 169.192 35.3286 169.217 35.2304C169.266 35.1076 169.327 34.9849 169.401 34.8622C169.474 34.7394 169.572 34.5798 169.695 34.3835C169.892 34.0398 170.26 33.4383 170.8 32.5791C171.34 31.7199 171.917 30.8116 172.531 29.8542C173.144 28.8968 173.721 27.9885 174.261 27.1293C174.826 26.2701 175.219 25.6687 175.44 25.325C175.464 25.3005 175.526 25.2882 175.624 25.2882C175.746 25.2882 175.832 25.2882 175.881 25.2882C175.931 25.2882 176.016 25.2882 176.139 25.2882C176.262 25.2882 176.336 25.3005 176.36 25.325C176.385 25.3496 176.434 25.4109 176.507 25.5091C176.606 25.6073 176.704 25.7178 176.802 25.8405C176.925 25.9387 177.023 26.0369 177.097 26.1351C177.195 26.2333 177.268 26.2824 177.318 26.2824C177.538 26.2824 177.772 26.2088 178.017 26.0615C178.263 25.9142 178.508 25.7546 178.754 25.5828C179.024 25.3864 179.294 25.2145 179.564 25.0673C179.834 24.92 180.116 24.8463 180.411 24.8463C180.73 24.8463 181.024 24.92 181.294 25.0673C181.564 25.2145 181.798 25.3987 181.994 25.6196C182.19 25.8405 182.338 26.086 182.436 26.3561C182.559 26.6261 182.62 26.8961 182.62 27.1662C182.62 27.7308 182.534 28.2708 182.362 28.7864C182.215 29.3019 182.043 29.8174 181.847 30.3329C181.65 30.8239 181.466 31.3272 181.294 31.8427C181.147 32.3336 181.074 32.8492 181.074 33.3892C181.074 33.9293 181.135 34.3221 181.258 34.5676C181.38 34.7885 181.724 34.899 182.289 34.899C182.951 34.899 183.577 34.8008 184.167 34.6044C184.78 34.408 185.406 34.3098 186.045 34.3098C186.045 34.899 185.86 35.39 185.492 35.7827C185.149 36.1755 184.707 36.4946 184.167 36.7401C183.651 36.9611 183.086 37.1206 182.473 37.2188C181.884 37.2925 181.344 37.3293 180.853 37.3293C179.92 37.3293 179.232 37.0715 178.79 36.556C178.373 36.0159 178.164 35.304 178.164 34.4203C178.164 33.8311 178.263 33.2788 178.459 32.7632C178.68 32.2477 178.913 31.7445 179.159 31.2535C179.429 30.7625 179.674 30.2716 179.895 29.7806C180.116 29.2896 180.227 28.7618 180.227 28.1972C180.227 28.0499 180.202 27.8535 180.153 27.608C180.104 27.3625 179.944 27.2398 179.674 27.2398C178.864 27.2398 178.128 27.4976 177.465 28.0131C176.827 28.5286 176.237 29.1791 175.697 29.9647C175.182 30.7503 174.703 31.5972 174.261 32.5055C173.844 33.4138 173.439 34.2607 173.046 35.0463C172.678 35.8318 172.322 36.4824 171.978 36.9979C171.635 37.5134 171.279 37.7712 170.91 37.7712C170.395 37.7712 169.978 37.6116 169.658 37.2925C169.339 36.9733 169.18 36.5683 169.18 36.0773Z" fill="white"/>
<path d="M152.684 32.9105C152.757 31.7322 153.113 30.6275 153.751 29.5965C154.39 28.5409 155.138 27.5589 155.998 26.6506C156.881 25.7423 157.802 24.9077 158.759 24.1467C159.741 23.3611 160.601 22.6369 161.337 21.9741C161.337 21.8268 161.263 21.6304 161.116 21.385C160.993 21.1395 160.895 20.7099 160.821 20.0962C160.821 19.016 161.067 18.0341 161.558 17.1503C162.049 16.242 162.687 15.481 163.473 14.8673C164.283 14.229 165.179 13.7381 166.161 13.3944C167.167 13.0507 168.186 12.8789 169.217 12.8789C169.659 12.8789 170.027 13.0507 170.322 13.3944C170.616 13.7135 170.85 14.1063 171.021 14.5727C171.193 15.0391 171.304 15.5178 171.353 16.0088C171.426 16.4998 171.463 16.9048 171.463 17.224H170.174C170.174 16.9539 170.138 16.6716 170.064 16.377C170.015 16.0824 169.917 15.8247 169.769 15.6038C169.647 15.3583 169.475 15.1619 169.254 15.0146C169.058 14.8427 168.8 14.7568 168.481 14.7568C167.916 14.7568 167.302 14.9164 166.639 15.2355C165.977 15.5301 165.351 15.9229 164.762 16.4139C164.197 16.8803 163.718 17.4204 163.325 18.0341C162.933 18.6478 162.736 19.2615 162.736 19.8752C162.736 20.1943 162.834 20.4276 163.031 20.5748C163.252 20.6976 163.522 20.7835 163.841 20.8326C164.185 20.8817 164.541 20.9063 164.909 20.9063C165.277 20.9063 165.621 20.9308 165.94 20.9799C166.284 21.0045 166.554 21.0904 166.75 21.2377C166.971 21.385 167.081 21.6182 167.081 21.9373C167.081 22.1337 167.057 22.3301 167.008 22.5265C166.959 22.6983 166.811 22.8456 166.566 22.9683C165.142 23.3366 163.853 23.7784 162.699 24.294C161.57 24.7849 160.539 25.3864 159.606 26.0983C158.673 26.7857 157.802 27.608 156.992 28.5654C156.206 29.5228 155.433 30.6643 154.672 31.99C154.672 32.0391 154.66 32.1618 154.635 32.3582C154.635 32.5546 154.635 32.6773 154.635 32.7264C154.635 33.6102 154.881 34.2853 155.372 34.7517C155.887 35.1936 156.562 35.4145 157.397 35.4145C158.33 35.4145 159.373 35.2672 160.527 34.9726C161.705 34.678 162.847 34.3589 163.951 34.0152C165.056 33.6715 166.063 33.3524 166.971 33.0578C167.904 32.7632 168.591 32.616 169.033 32.616C169.008 33.156 168.775 33.6715 168.333 34.1625C167.891 34.6535 167.315 35.1076 166.603 35.525C165.891 35.9177 165.081 36.2737 164.172 36.5928C163.289 36.912 162.38 37.1697 161.447 37.3661C160.539 37.5625 159.643 37.6975 158.759 37.7712C157.9 37.8448 157.139 37.8448 156.476 37.7712C155.838 37.7712 155.273 37.6239 154.783 37.3293C154.316 37.0347 153.923 36.6542 153.604 36.1878C153.31 35.7214 153.076 35.2058 152.905 34.6412C152.757 34.0521 152.684 33.4752 152.684 32.9105Z" fill="white"/>
<path d="M121.347 35.8196C120.93 34.8867 120.746 33.9784 120.795 33.0947C120.844 32.1864 121.04 31.3394 121.384 30.5539C121.752 29.7438 122.219 29.0196 122.783 28.3813C123.372 27.7185 123.998 27.1539 124.661 26.6875C125.324 26.1965 125.987 25.8283 126.65 25.5828C127.337 25.3373 127.939 25.2391 128.454 25.2882C128.97 25.3127 129.375 25.4969 129.669 25.8405C129.964 26.1842 130.062 26.712 129.964 27.4239C129.964 28.3813 129.657 29.216 129.043 29.9279C128.454 30.6398 127.791 31.2781 127.055 31.8427C126.343 32.4073 125.68 32.9228 125.066 33.3892C124.477 33.8311 124.183 34.2484 124.183 34.6412C124.183 34.8622 124.305 35.034 124.551 35.1567C124.821 35.2795 125.128 35.3777 125.471 35.4513C125.815 35.5004 126.159 35.5372 126.502 35.5618C126.846 35.5863 127.092 35.6109 127.239 35.6354C129.546 35.1445 131.277 34.8499 132.431 34.7517C133.585 34.6289 134.309 34.6412 134.603 34.7885C134.898 34.9113 134.837 35.1199 134.419 35.4145C134.027 35.6845 133.413 35.9791 132.578 36.2983C131.744 36.5928 130.774 36.8629 129.669 37.1084C128.565 37.3538 127.472 37.5011 126.392 37.5502C125.312 37.5748 124.305 37.4643 123.372 37.2188C122.464 36.9733 121.789 36.5069 121.347 35.8196ZM127.791 27.4239C127.3 27.4239 126.834 27.5589 126.392 27.829C125.95 28.099 125.545 28.4427 125.177 28.86C124.833 29.2528 124.539 29.6947 124.293 30.1856C124.048 30.6521 123.863 31.0939 123.741 31.5113C123.79 31.5358 123.827 31.5481 123.851 31.5481H123.962C124.305 31.5481 124.698 31.4008 125.14 31.1062C125.582 30.8116 125.999 30.4557 126.392 30.0384C126.785 29.5965 127.116 29.1423 127.386 28.6759C127.656 28.2095 127.791 27.7922 127.791 27.4239Z" fill="white"/>
<path d="M103.562 33.647C103.562 33.1806 103.623 32.7755 103.746 32.4318C103.893 32.0882 104.249 31.9163 104.814 31.9163C104.863 31.9163 104.973 31.9286 105.145 31.9531C105.341 31.9531 105.476 31.9654 105.55 31.99C105.525 33.1438 105.71 34.0152 106.102 34.6044C106.495 35.169 107.232 35.4513 108.312 35.4513C109.195 35.4513 110.067 35.3163 110.926 35.0463C111.785 34.7762 112.559 34.3835 113.246 33.8679C113.958 33.3279 114.522 32.6773 114.94 31.9163C115.382 31.1553 115.603 30.2961 115.603 29.3387C115.603 28.7495 115.394 28.3322 114.977 28.0867C114.584 27.8412 114.142 27.6449 113.651 27.4976C113.16 27.3503 112.706 27.1907 112.289 27.0189C111.896 26.8225 111.699 26.4911 111.699 26.0246C111.699 25.46 112.043 24.92 112.73 24.4044C113.418 23.8889 114.228 23.4348 115.161 23.042C116.094 22.6247 117.014 22.3055 117.922 22.0846C118.855 21.8391 119.567 21.7164 120.058 21.7164C120.058 22.4283 119.899 22.9315 119.58 23.2261C119.285 23.5207 118.917 23.7539 118.475 23.9257C118.033 24.0976 117.579 24.2694 117.112 24.4413C116.67 24.5886 116.302 24.8831 116.008 25.325C116.4 25.6441 116.72 25.9387 116.965 26.2088C117.235 26.4542 117.444 26.7243 117.591 27.0189C117.738 27.3135 117.837 27.6449 117.886 28.0131C117.935 28.3568 117.959 28.7741 117.959 29.2651C117.959 30.5416 117.677 31.7077 117.112 32.7632C116.572 33.7943 115.86 34.6903 114.977 35.4513C114.093 36.1878 113.086 36.7647 111.957 37.182C110.828 37.5748 109.674 37.7712 108.496 37.7712C107.858 37.7712 107.232 37.6975 106.618 37.5502C106.029 37.3784 105.501 37.1206 105.034 36.7769C104.593 36.4333 104.237 36.0037 103.967 35.4881C103.697 34.9726 103.562 34.3589 103.562 33.647Z" fill="white"/>
<path d="M94.5771 35.3409C94.5771 34.9972 94.614 34.7026 94.6876 34.4571C94.7613 34.1871 94.8963 33.8434 95.0927 33.4261C95.2645 33.1806 95.5714 32.7141 96.0132 32.0268C96.4797 31.3394 96.9584 30.6152 97.4493 29.8542C97.9649 29.0932 98.4436 28.3813 98.8854 27.7185C99.3519 27.0311 99.671 26.5524 99.8428 26.2824C100.064 25.9633 100.236 25.7914 100.358 25.7669C100.481 25.7423 100.714 25.7301 101.058 25.7301C101.279 25.7301 101.512 25.7423 101.758 25.7669C102.028 25.7914 102.199 25.9633 102.273 26.2824C101.929 27.1171 101.463 27.9149 100.874 28.6759C100.309 29.4124 99.7446 30.1488 99.18 30.8853C98.6399 31.6217 98.1612 32.3827 97.7439 33.1683C97.3266 33.9293 97.1179 34.7517 97.1179 35.6354C97.2161 35.6354 97.3634 35.6477 97.5598 35.6723C97.7807 35.6968 98.014 35.7214 98.2594 35.7459C98.5049 35.7705 98.7259 35.795 98.9223 35.8196C99.1432 35.8441 99.3028 35.8441 99.401 35.8196C99.5482 35.795 99.7937 35.7459 100.137 35.6723C100.506 35.5741 100.886 35.4759 101.279 35.3777C101.696 35.2795 102.089 35.1813 102.457 35.0831C102.825 34.9849 103.083 34.9113 103.231 34.8622C103.231 34.9113 103.231 34.9972 103.231 35.1199C103.255 35.2181 103.267 35.2918 103.267 35.3409C103.267 35.8318 103.034 36.2369 102.568 36.556C102.126 36.8751 101.598 37.1329 100.984 37.3293C100.395 37.5011 99.7815 37.6239 99.1432 37.6975C98.5295 37.7466 98.0508 37.7712 97.7071 37.7712C97.3389 37.7712 96.9584 37.7343 96.5656 37.6607C96.1974 37.5625 95.866 37.4152 95.5714 37.2188C95.2768 37.0224 95.0313 36.7769 94.8349 36.4824C94.6631 36.1632 94.5771 35.7827 94.5771 35.3409ZM105.293 13.7626C105.612 13.7626 105.906 13.7749 106.176 13.7994C106.446 13.824 106.68 13.8853 106.876 13.9835C107.072 14.0817 107.232 14.229 107.355 14.4254C107.477 14.6218 107.539 14.8918 107.539 15.2355C107.539 15.3828 107.539 15.5424 107.539 15.7142C107.539 15.8861 107.514 16.0579 107.465 16.2297C107.441 16.377 107.379 16.5121 107.281 16.6348C107.183 16.733 107.023 16.7821 106.802 16.7821C106.459 16.7821 106.176 16.6593 105.955 16.4139C105.759 16.1684 105.612 15.8861 105.514 15.5669C105.415 15.2232 105.354 14.8796 105.329 14.5359C105.305 14.1922 105.293 13.9344 105.293 13.7626Z" fill="white"/>
<path d="M87.1753 36.0405C87.1753 34.6167 87.3595 33.1806 87.7277 31.7322C88.1205 30.2593 88.5992 28.8109 89.1638 27.3871C89.7529 25.9633 90.3789 24.5886 91.0417 23.2629C91.7046 21.9128 92.3306 20.6485 92.9197 19.4702V18.9915C92.6497 19.286 92.2201 19.7525 91.6309 20.3907C91.0663 21.0045 90.4158 21.7041 89.6793 22.4896C88.9674 23.2752 88.2064 24.1099 87.3963 24.9936C86.6107 25.8528 85.8497 26.6752 85.1133 27.4607C84.4013 28.2463 83.7631 28.9582 83.1985 29.5965C82.6338 30.2102 82.2165 30.6643 81.9465 30.9589C81.6764 31.2535 81.4187 31.6954 81.1732 32.2846C80.9277 32.8492 80.6577 33.4261 80.3631 34.0152C80.0685 34.6044 79.7371 35.1199 79.3689 35.5618C79.0252 36.0037 78.6324 36.2246 78.1905 36.2246C77.8223 36.2246 77.5277 36.1878 77.3068 36.1141C77.1104 36.0405 76.9631 35.93 76.8649 35.7827C76.7667 35.6109 76.7053 35.4022 76.6808 35.1567C76.6562 34.9113 76.644 34.6167 76.644 34.273C76.644 32.4564 76.9017 30.7012 77.4173 29.0073C77.9573 27.2889 78.5219 25.546 79.1111 23.7784V23.2998C79.062 23.3488 78.9761 23.4348 78.8534 23.5575C78.7306 23.6557 78.657 23.7294 78.6324 23.7784C78.0432 24.6622 77.4418 25.6196 76.8281 26.6506C76.2144 27.6571 75.5761 28.6636 74.9133 29.6701C74.2505 30.6521 73.5386 31.5972 72.7776 32.5055C72.0166 33.4138 71.1942 34.2239 70.3104 34.9358C69.4267 35.6232 68.457 36.1755 67.4014 36.5928C66.3704 37.0102 65.2289 37.2188 63.9769 37.2188C63.7068 37.2188 63.3386 37.2066 62.8722 37.182C62.4303 37.1575 61.9884 37.0838 61.5466 36.9611C61.1292 36.8383 60.761 36.6419 60.4419 36.3719C60.1473 36.1019 60 35.7214 60 35.2304C60 35.034 60.1105 34.7885 60.3314 34.4939C60.5769 34.1748 60.7856 33.9539 60.9574 33.8311C61.3011 34.3957 61.5834 34.7762 61.8043 34.9726C62.0498 35.1445 62.3935 35.2304 62.8354 35.2304C63.5718 35.2304 64.3451 35.1199 65.1552 34.899C65.9899 34.6535 66.7877 34.3344 67.5487 33.9416C68.3343 33.5488 69.0707 33.0947 69.7581 32.5791C70.4454 32.0636 71.0223 31.5235 71.4888 30.9589C71.857 30.468 72.2989 29.842 72.8144 29.081C73.3545 28.2954 73.9191 27.4485 74.5082 26.5402C75.122 25.6073 75.7479 24.6622 76.3862 23.7048C77.0245 22.7474 77.6382 21.8391 78.2274 20.9799C78.8411 20.0962 79.4057 19.3106 79.9212 18.6232C80.4367 17.9359 80.8786 17.4204 81.2468 17.0767C81.5905 17.0767 81.8483 17.138 82.0201 17.2608C82.192 17.359 82.3147 17.5063 82.3884 17.7027C82.462 17.8991 82.4988 18.1323 82.4988 18.4023C82.4988 18.6723 82.4988 18.9546 82.4988 19.2492C82.4988 20.2803 82.3393 21.2868 82.0201 22.2687C81.7255 23.2507 81.3941 24.2081 81.0259 25.1409C80.6577 26.0492 80.314 26.9452 79.9949 27.829C79.7003 28.7127 79.553 29.5842 79.553 30.4434C79.553 30.4925 79.553 30.5784 79.553 30.7012C79.5775 30.8239 79.5898 30.9098 79.5898 30.9589C81.8974 28.4059 83.8858 26.1965 85.5551 24.3308C87.2244 22.4651 88.636 20.8817 89.7898 19.5806C90.9681 18.255 91.9255 17.1871 92.662 16.377C93.3984 15.5424 93.9876 14.9041 94.4295 14.4622C94.8713 13.9958 95.2027 13.6767 95.4237 13.5048C95.6692 13.333 95.8656 13.2471 96.0128 13.2471C96.2583 13.2471 96.4424 13.3207 96.5652 13.468C96.6879 13.6153 96.7616 13.7872 96.7861 13.9835C96.8352 14.1799 96.8475 14.3886 96.823 14.6095C96.823 14.8305 96.823 15.0146 96.823 15.1619C96.823 16.1929 96.6266 17.2485 96.2338 18.3287C95.8656 19.3842 95.3869 20.4767 94.7977 21.6059C94.2331 22.7106 93.6071 23.8398 92.9197 24.9936C92.2569 26.1228 91.6309 27.2889 91.0417 28.4918C90.4771 29.6947 89.9984 30.9221 89.6057 32.1741C89.2374 33.4015 89.0533 34.6658 89.0533 35.9668C89.0533 36.6297 89.0656 37.1206 89.0901 37.4398C89.1147 37.7343 89.1883 37.9798 89.3111 38.1762C89.4338 38.3972 89.6302 38.6181 89.9002 38.839C90.1703 39.0845 90.5508 39.465 91.0417 39.9805C90.4771 40.2997 89.9248 40.4224 89.3847 40.3488C88.8692 40.2997 88.415 40.091 88.0223 39.7228C87.654 39.3546 87.384 38.8513 87.2122 38.213C87.0403 37.5748 87.028 36.8506 87.1753 36.0405Z" fill="white"/>
<rect width="48" height="48" rx="8" fill="#254A1C"/>
<path d="M31.6081 32.018C31.6081 30.7832 31.7681 29.5377 32.088 28.2816C32.4292 27.0041 32.8451 25.748 33.3356 24.5132C33.8474 23.2783 34.3912 22.0861 34.967 20.9364C35.5428 19.7655 36.0866 18.669 36.5985 17.6471V17.2319C36.3639 17.4874 35.9907 17.8919 35.4788 18.4455C34.9883 18.9777 34.4232 19.5845 33.7834 20.2658C33.1649 20.9471 32.5038 21.6709 31.8001 22.4374C31.1176 23.1825 30.4565 23.8958 29.8167 24.577C29.1983 25.2583 28.6438 25.8758 28.1533 26.4293C27.6628 26.9616 27.3002 27.3554 27.0656 27.6109C26.8311 27.8664 26.6071 28.2496 26.3939 28.7606C26.1806 29.2503 25.946 29.7506 25.6901 30.2615C25.4342 30.7725 25.1463 31.2196 24.8264 31.6028C24.5278 31.9861 24.1866 32.1777 23.8027 32.1777C23.4828 32.1777 23.2269 32.1457 23.035 32.0819C22.8644 32.018 22.7364 31.9222 22.6511 31.7944C22.5658 31.6454 22.5125 31.4644 22.4912 31.2515C22.4698 31.0386 22.4592 30.7832 22.4592 30.4851C22.4592 28.9096 22.6831 27.3874 23.131 25.9183C23.6001 24.428 24.0906 22.9164 24.6025 21.3835V20.9684C24.5598 21.0109 24.4852 21.0854 24.3785 21.1919C24.2719 21.2771 24.2079 21.3409 24.1866 21.3835C23.6748 22.15 23.1523 22.9803 22.6191 23.8745C22.086 24.7474 21.5315 25.6203 20.9557 26.4932C20.3799 27.3448 19.7614 28.1645 19.1003 28.9522C18.4392 29.7399 17.7248 30.4425 16.957 31.0599C16.1893 31.6561 15.3469 32.1351 14.4299 32.497C13.5342 32.859 12.5425 33.0399 11.4548 33.0399C11.2203 33.0399 10.9004 33.0293 10.4952 33.008C10.1113 32.9867 9.72742 32.9228 9.34355 32.8164C8.98101 32.7099 8.66111 32.5396 8.38387 32.3054C8.12796 32.0712 8 31.7412 8 31.3154C8 31.1451 8.09597 30.9322 8.2879 30.6767C8.50117 30.3999 8.68244 30.2083 8.83172 30.1019C9.13029 30.5915 9.37554 30.9215 9.56748 31.0919C9.78074 31.2409 10.0793 31.3154 10.4632 31.3154C11.103 31.3154 11.7747 31.2196 12.4785 31.028C13.2036 30.8151 13.8967 30.5383 14.5578 30.1977C15.2403 29.857 15.88 29.4632 16.4772 29.0161C17.0743 28.569 17.5755 28.1006 17.9807 27.6109C18.3006 27.1851 18.6844 26.6422 19.1323 25.9822C19.6015 25.3009 20.092 24.5664 20.6038 23.7787C21.137 22.9696 21.6808 22.15 22.2353 21.3196C22.7897 20.4893 23.3229 19.7016 23.8347 18.9564C24.3679 18.19 24.8584 17.5087 25.3062 16.9126C25.7541 16.3164 26.138 15.8693 26.4578 15.5713C26.7564 15.5713 26.9803 15.6245 27.1296 15.731C27.2789 15.8161 27.3855 15.9439 27.4495 16.1142C27.5135 16.2845 27.5455 16.4868 27.5455 16.721C27.5455 16.9551 27.5455 17.2 27.5455 17.4555C27.5455 18.3497 27.4069 19.2226 27.1296 20.0742C26.8737 20.9258 26.5858 21.7561 26.2659 22.5651C25.946 23.3529 25.6475 24.13 25.3702 24.8964C25.1143 25.6629 24.9863 26.4187 24.9863 27.1638C24.9863 27.2064 24.9863 27.2809 24.9863 27.3874C25.0077 27.4938 25.0183 27.5683 25.0183 27.6109C27.023 25.3967 28.7504 23.4806 30.2006 21.8625C31.6508 20.2445 32.877 18.8713 33.8794 17.7429C34.903 16.5932 35.7348 15.6671 36.3745 14.9645C37.0143 14.2406 37.5262 13.6871 37.91 13.3039C38.2939 12.8994 38.5818 12.6226 38.7737 12.4735C38.987 12.3245 39.1576 12.25 39.2856 12.25C39.4988 12.25 39.6588 12.3139 39.7654 12.4416C39.872 12.5694 39.936 12.7184 39.9573 12.8887C40 13.059 40.0107 13.24 39.9893 13.4316C39.9893 13.6232 39.9893 13.7829 39.9893 13.9106C39.9893 14.8048 39.8187 15.7203 39.4775 16.6571C39.1576 17.5726 38.7418 18.52 38.2299 19.4993C37.7394 20.4574 37.1956 21.4367 36.5985 22.4374C36.0227 23.4167 35.4788 24.428 34.967 25.4712C34.4765 26.5145 34.0606 27.579 33.7194 28.6648C33.3995 29.7293 33.2396 30.8257 33.2396 31.9541C33.2396 32.529 33.2503 32.9548 33.2716 33.2315C33.2929 33.487 33.3569 33.6999 33.4635 33.8702C33.5701 34.0619 33.7408 34.2535 33.9753 34.4451C34.2099 34.658 34.5405 34.988 34.967 35.4351C34.4765 35.7118 33.9967 35.8183 33.5275 35.7544C33.0796 35.7118 32.6851 35.5309 32.3439 35.2115C32.024 34.8922 31.7894 34.4557 31.6401 33.9022C31.4908 33.3486 31.4802 32.7206 31.6081 32.018Z" fill="#FDFDFD"/>
</svg>
