<svg width="1020" height="200" viewBox="0 0 1020 200" fill="none" xmlns="http://www.w3.org/2000/svg">
<path d="M93.75 200H60.4166L106.25 0H139.583L93.75 200Z" fill="#EC5829"/>
<path d="M52.0833 200H18.75L64.5833 0H97.9167L52.0833 200Z" fill="#40B599"/>
<path d="M135.417 200H102.083L147.917 0H181.25L135.417 200Z" fill="#3385CB"/>
<path d="M61.9557 54.1041L80.2113 41.1223H121.591L139.846 54.1041V138.486L100.901 157.958L61.9557 138.486V54.1041Z" fill="#74501D"/>
<path fill-rule="evenodd" clip-rule="evenodd" d="M54.1666 50.0853L77.7242 33.3333H124.078L147.635 50.0853V143.299L100.901 166.667L54.1666 143.299V50.0853ZM61.9557 138.486V54.1041L80.2113 41.1223H121.591L139.846 54.1041V138.486L100.901 157.958L61.9557 138.486Z" fill="#FFCC66"/>
<path d="M90.5156 147.573L100.901 152.766L111.286 147.573V76.8223H90.5156V147.573Z" fill="#FFCC66"/>
<path fill-rule="evenodd" clip-rule="evenodd" d="M100.901 154.217L89.2174 148.375V75.5239H112.585V148.375L100.901 154.217ZM111.286 147.573L100.901 152.765L90.5156 147.573V76.8221H111.286V147.573Z" fill="#74501D"/>
<path d="M68.4465 56.0514L80.1301 47.6133H121.672L133.355 56.0514V71.6295L121.672 78.1204L100.901 74.2259L80.1301 78.1204L68.4465 71.6295V56.0514Z" fill="#FFCC66"/>
<path fill-rule="evenodd" clip-rule="evenodd" d="M78.4511 42.4204H123.351L138.548 53.3962V74.6848L122.556 83.5692L100.901 79.5089L79.2459 83.5692L63.2539 74.6848V53.3962L78.4511 42.4204ZM100.901 74.2257L121.672 78.1203L133.355 71.6294V56.0513L121.672 47.6131H80.1302L68.4466 56.0513V71.6294L80.1302 78.1203L100.901 74.2257Z" fill="#74501D"/>
<path d="M133.355 133.293V103.435V100.838L121.672 89.1548L116.479 94.3475H74.9374L72.3411 96.9438V102.137L74.9374 104.733L72.3411 107.329V112.522L74.9374 115.118L72.3411 117.715V122.907L74.9374 125.504L72.3411 128.1V133.293L77.5338 137.187H124.268L129.461 133.293H133.355Z" fill="#FFCC66"/>
<path fill-rule="evenodd" clip-rule="evenodd" d="M121.672 85.4829L135.952 99.7628V135.889H130.326L125.134 139.784H76.6684L69.7448 134.591V127.025L71.2657 125.504L69.7448 123.983V116.639L71.2657 115.118L69.7448 113.597V106.254L71.2657 104.733L69.7448 103.212V95.8683L73.862 91.7511H115.404L121.672 85.4829ZM76.0129 107.329L74.9375 108.405V111.446L76.0129 112.522H89.2174V117.715H76.0129L74.9375 118.79V121.832L76.0129 122.907H89.2174V128.1H76.0129L74.9375 129.175V131.995L78.3993 134.591H123.403L128.595 130.696H130.759V101.914L121.672 92.8265L117.555 96.9438H76.0129L74.9375 98.0192V101.061L76.0129 102.136H89.2174V107.329H76.0129Z" fill="#74501D"/>
<path d="M133.355 133.293V103.435V100.838L121.672 89.1548L116.479 94.3475H74.9374L72.3411 96.9438V102.137L74.9374 104.733L72.3411 107.329V112.522L74.9374 115.118L72.3411 117.715V122.907L74.9374 125.504L72.3411 128.1V133.293L77.5338 137.187H124.268L129.461 133.293H133.355Z" fill="#FFCC66"/>
<path fill-rule="evenodd" clip-rule="evenodd" d="M121.672 88.2368L134.004 100.569V133.942H129.677L124.485 137.836H77.3174L71.692 133.617V127.831L74.0195 125.504L71.692 123.176V117.446L74.0195 115.118L71.692 112.791V107.06L74.0195 104.733L71.692 102.405V96.675L74.6686 93.6984H116.21L121.672 88.2368ZM75.2063 105.382L72.9902 107.598V112.253L75.2063 114.469H89.2174V115.767H75.2063L72.9902 117.984V122.638L75.2063 124.855H89.2174V126.153H75.2063L72.9902 128.369V132.968L77.7502 136.538H124.052L129.244 132.644H132.706V101.107L121.672 90.0727L116.748 94.9966H75.2063L72.9902 97.2127V101.868L75.2063 104.084H89.2174V105.382H75.2063Z" fill="#74501D"/>
<path d="M296.7 98.02L284.183 47.4261H283.454L270.936 98.02H244.201L225 13.7377H246.145L258.662 72.7843H259.27L273.245 13.7377H294.877L309.095 72.7843H309.824L321.491 13.7377H342.515L323.314 98.02H296.7Z" fill="white"/>
<path d="M372.335 99C363.099 99 356.456 98.1016 352.405 96.3049C348.354 94.4265 345.761 91.4048 344.627 87.2397C343.574 82.9929 343.047 76.1735 343.047 66.7816C343.047 57.308 343.574 50.4887 344.627 46.3236C345.761 42.1585 348.354 39.1775 352.405 37.3808C356.456 35.5024 363.099 34.5632 372.335 34.5632C381.571 34.5632 388.214 35.5024 392.265 37.3808C396.316 39.1775 398.868 42.1585 399.921 46.3236C401.055 50.4887 401.622 57.308 401.622 66.7816C401.622 76.1735 401.055 82.9929 399.921 87.2397C398.868 91.4048 396.316 94.4265 392.265 96.3049C388.214 98.1016 381.571 99 372.335 99ZM372.335 83.6871C375.738 83.6871 378.047 83.3604 379.262 82.7071C380.558 81.972 381.328 80.5837 381.571 78.5419C381.895 76.5002 382.057 72.5801 382.057 66.7816C382.057 60.9015 381.895 56.9405 381.571 54.8988C381.328 52.8571 380.558 51.5095 379.262 50.8562C378.047 50.2028 375.738 49.8762 372.335 49.8762C368.932 49.8762 366.583 50.2028 365.286 50.8562C364.071 51.5095 363.302 52.8571 362.977 54.8988C362.734 56.9405 362.613 60.9015 362.613 66.7816C362.613 72.5801 362.734 76.5002 362.977 78.5419C363.302 80.5837 364.071 81.972 365.286 82.7071C366.583 83.3604 368.932 83.6871 372.335 83.6871Z" fill="white"/>
<path d="M480.53 98.02L468.013 47.4261H467.284L454.767 98.02H428.031L408.83 13.7377H429.976L442.493 72.7843H443.1L457.076 13.7377H478.707L492.926 72.7843H493.655L505.321 13.7377H526.345L507.144 98.02H480.53Z" fill="white"/>
<path d="M564.705 99C552.877 99 542.385 98.3058 533.23 96.9174V80.257C543.114 81.237 551.459 81.727 558.264 81.727C562.234 81.727 565.272 81.5637 567.379 81.237C569.485 80.9103 570.984 80.3795 571.875 79.6445C572.685 78.9911 573.172 78.2153 573.334 77.3169C573.577 76.3369 573.698 74.9893 573.698 73.2743C573.698 71.2326 573.536 69.7625 573.212 68.8642C572.888 67.9658 572.24 67.3533 571.268 67.0266C570.295 66.6183 568.594 66.2508 566.164 65.9241L550.73 63.964C545.221 63.3107 541.008 61.9223 538.091 59.7989C535.256 57.5939 533.311 54.7763 532.258 51.3462C531.286 47.9161 530.8 43.6285 530.8 38.4834C530.8 31.2148 532.137 25.7022 534.81 21.9454C537.484 18.1886 541.048 15.7386 545.504 14.5952C550.041 13.3702 555.793 12.7577 562.761 12.7577C567.865 12.7577 572.523 12.9618 576.736 13.3702C581.03 13.7785 585.689 14.4319 590.712 15.3302V31.6232C581.071 30.5615 573.172 30.0306 567.014 30.0306C560.533 30.0306 556.32 30.5206 554.376 31.5007C553.322 31.9907 552.634 32.6849 552.31 33.5832C552.067 34.4816 551.945 35.7474 551.945 37.3808C551.945 39.4225 552.067 40.8926 552.31 41.7909C552.634 42.6076 553.241 43.2201 554.133 43.6285C555.105 43.9552 556.766 44.2818 559.115 44.6085L576.858 46.8136C580.423 47.2219 583.339 47.9569 585.608 49.0186C587.957 50.0803 589.901 51.877 591.441 54.4088C593.79 57.9205 594.965 63.5149 594.965 71.1917C594.965 79.1953 593.709 85.2388 591.198 89.3222C588.686 93.324 585.324 95.9374 581.111 97.1624C576.898 98.3875 571.43 99 564.705 99Z" fill="white"/>
<path d="M640.059 13.7377H682.107C690.29 13.7377 696.406 15.4936 700.457 19.0053C704.508 22.5171 706.534 27.8256 706.534 34.9308C706.534 40.8926 705.359 45.4252 703.009 48.5286C700.741 51.5504 697.055 53.6329 691.951 54.7763V55.2663C697.46 56.4913 701.389 58.5739 703.738 61.514C706.088 64.4541 707.263 69.15 707.263 75.6019C707.263 83.0337 705.278 88.628 701.308 92.3848C697.419 96.1416 690.978 98.02 681.985 98.02H640.059V13.7377ZM674.451 47.3036C677.449 47.3036 679.677 47.0994 681.135 46.6911C682.593 46.2011 683.606 45.3844 684.173 44.241C684.74 43.0976 685.024 41.3826 685.024 39.0959C685.024 36.7275 684.74 34.9716 684.173 33.8282C683.687 32.6849 682.715 31.909 681.256 31.5007C679.879 31.0923 677.611 30.8881 674.451 30.8881H661.083V47.3036H674.451ZM675.059 80.8695C678.137 80.8695 680.406 80.6653 681.864 80.257C683.322 79.767 684.335 78.9503 684.902 77.8069C685.469 76.6636 685.753 74.8668 685.753 72.4168C685.753 69.885 685.469 68.0067 684.902 66.7816C684.416 65.5566 683.403 64.7399 681.864 64.3316C680.406 63.8415 678.137 63.5965 675.059 63.5965H661.083V80.8695H675.059Z" fill="white"/>
<path d="M758.517 90.5473H757.423C754.263 96.1824 748.309 99 739.559 99C734.293 99 730.283 98.1016 727.528 96.3049C724.854 94.4265 723.072 91.8131 722.181 88.4647C721.29 85.0346 720.844 80.4203 720.844 74.6218V35.5433H740.41V68.4967C740.41 73.0701 740.572 76.2552 740.896 78.0519C741.301 79.8486 742.03 80.992 743.083 81.482C744.136 81.972 746.081 82.217 748.916 82.217C751.671 82.217 753.656 81.8495 754.871 81.1145C756.167 80.2978 757.018 78.9503 757.423 77.0719C757.828 75.1935 758.031 72.2126 758.031 68.1292V35.5433H777.596V98.02H759.003L758.517 90.5473Z" fill="white"/>
<path d="M792.285 23.1704V7H812.336V23.1704H792.285ZM792.406 98.02V35.5433H812.215V98.02H792.406Z" fill="white"/>
<path d="M827.06 98.02V7H846.868V98.02H827.06Z" fill="white"/>
<path d="M879.942 99C874.919 99 870.949 98.0608 868.033 96.1824C865.197 94.304 863.091 91.0781 861.713 86.5047C860.336 81.8495 859.648 75.3569 859.648 67.0266C859.648 58.6147 860.296 52.0812 861.592 47.4261C862.969 42.771 865.076 39.5042 867.911 37.6258C870.828 35.6658 874.798 34.6857 879.821 34.6857C883.953 34.6857 887.396 35.2166 890.15 36.2783C892.986 37.2583 895.295 39.2184 897.077 42.1585H898.049V7H917.615V98.02H899.022L898.536 90.6698H897.563C895.862 93.8549 893.512 96.0599 890.515 97.2849C887.517 98.4283 883.993 99 879.942 99ZM888.692 82.3395C891.204 82.3395 893.067 82.0537 894.282 81.482C895.497 80.8287 896.389 79.7261 896.956 78.1744C897.442 76.8677 897.725 75.3569 897.806 73.6418C897.968 71.9268 898.049 69.64 898.049 66.7816C898.049 61.3915 897.725 57.7164 897.077 55.7563C896.51 54.0413 895.619 52.8979 894.404 52.3262C893.188 51.6729 891.285 51.3462 888.692 51.3462C885.613 51.3462 883.466 51.6729 882.251 52.3262C881.036 52.8979 880.226 54.2046 879.821 56.2463C879.416 58.2064 879.213 61.7182 879.213 66.7816C879.213 71.9268 879.416 75.5202 879.821 77.5619C880.226 79.522 881.036 80.8287 882.251 81.482C883.466 82.0537 885.613 82.3395 888.692 82.3395Z" fill="white"/>
<path d="M956.507 99C952.618 99 948.324 98.8367 943.625 98.51C939.007 98.1833 934.956 97.775 931.473 97.2849V83.0746C938.44 83.7279 944.84 84.0546 950.674 84.0546C954.562 84.0546 957.317 83.9321 958.937 83.6871C960.558 83.4421 961.57 83.0337 961.975 82.462C962.462 81.8087 962.705 80.747 962.705 79.277C962.705 78.0519 962.543 77.1944 962.218 76.7044C961.975 76.1327 961.449 75.7244 960.639 75.4794C959.828 75.2344 958.411 74.9893 956.385 74.7443L941.924 72.9068C937.063 72.2534 933.782 70.4159 932.08 67.3941C930.46 64.2907 929.65 59.6764 929.65 53.5513C929.65 48.0794 930.703 43.996 932.809 41.3009C934.916 38.5242 937.751 36.7275 941.316 35.9108C944.962 35.0124 949.661 34.5632 955.413 34.5632C959.383 34.5632 963.434 34.7266 967.566 35.0533C971.697 35.3799 975.019 35.8291 977.531 36.4008V50.4887C970.887 49.8353 964.933 49.5086 959.666 49.5086C956.102 49.5086 953.55 49.5903 952.01 49.7537C950.471 49.917 949.377 50.3253 948.729 50.9787C948.162 51.5504 947.879 52.5304 947.879 53.9188C947.879 55.1438 947.96 56.0013 948.122 56.4913C948.365 56.9814 948.851 57.3489 949.58 57.5939C950.39 57.8389 951.686 58.0839 953.469 58.3289L967.809 60.0439C970.968 60.4523 973.439 61.1873 975.222 62.249C977.004 63.229 978.381 65.0257 979.354 67.6391C980.407 70.1709 980.933 73.8868 980.933 78.7869C980.933 84.5854 979.921 88.9547 977.895 91.8948C975.951 94.8349 973.277 96.7541 969.875 97.6525C966.472 98.5508 962.016 99 956.507 99Z" fill="white"/>
<path d="M264.956 126.281H238.557L229.281 131.633V176.226L251.756 189.07L274.232 176.226V131.633L264.956 126.281Z" fill="#1979E9"/>
<path d="M260.675 131.276H242.838V136.27L247.119 139.838V142.692H237.843V147.329L244.978 151.61H247.119V170.162L242.124 166.951V156.962L233.562 151.967V172.302L251.756 183.005L269.951 172.302V151.967L261.389 156.962V166.951L256.394 170.162V151.61H258.535L265.67 147.329V142.692H256.394V139.838L260.675 136.27V131.276Z" fill="white"/>
<path fill-rule="evenodd" clip-rule="evenodd" d="M237.41 122H266.103L278.513 129.16V178.711L251.756 194L225 178.711V129.16L237.41 122ZM238.557 126.281H264.956L274.232 131.632V176.226L251.756 189.069L229.281 176.226V131.632L238.557 126.281Z" fill="white"/>
<path d="M330.577 177L322.345 148.384H322.121L313.945 177H306.161L296.193 138.472H302.577L310.361 168.936H310.641L319.097 138.472H325.705L334.329 168.936H334.609L342.001 138.472H348.329L338.305 177H330.577Z" fill="white"/>
<path d="M364.453 177.448C360.421 177.448 357.509 177.037 355.717 176.216C353.963 175.357 352.843 173.976 352.357 172.072C351.872 170.131 351.629 166.995 351.629 162.664C351.629 158.371 351.872 155.272 352.357 153.368C352.843 151.427 353.963 150.045 355.717 149.224C357.509 148.403 360.421 147.992 364.453 147.992C368.485 147.992 371.379 148.403 373.133 149.224C374.925 150.045 376.064 151.427 376.549 153.368C377.035 155.272 377.277 158.371 377.277 162.664C377.277 166.995 377.035 170.131 376.549 172.072C376.064 173.976 374.925 175.357 373.133 176.216C371.379 177.037 368.485 177.448 364.453 177.448ZM364.453 172.184C366.805 172.184 368.429 171.979 369.325 171.568C370.221 171.12 370.763 170.317 370.949 169.16C371.173 168.003 371.285 165.837 371.285 162.664C371.285 159.491 371.173 157.344 370.949 156.224C370.763 155.067 370.221 154.283 369.325 153.872C368.429 153.461 366.805 153.256 364.453 153.256C362.101 153.256 360.477 153.461 359.581 153.872C358.685 154.283 358.125 155.067 357.901 156.224C357.715 157.344 357.621 159.491 357.621 162.664C357.621 165.837 357.715 168.003 357.901 169.16C358.125 170.317 358.685 171.12 359.581 171.568C360.477 171.979 362.101 172.184 364.453 172.184Z" fill="white"/>
<path d="M385.015 148.44H390.447L390.671 153.536H391.119C391.791 151.445 392.874 150.008 394.367 149.224C395.898 148.403 397.932 147.992 400.471 147.992V154.152C397.932 154.152 395.972 154.525 394.591 155.272C393.247 155.981 392.295 157.12 391.735 158.688C391.212 160.219 390.951 162.365 390.951 165.128V177H385.015V148.44Z" fill="white"/>
<path d="M406.343 177V135.392H412.279V177H406.343Z" fill="white"/>
<path d="M430.235 177.448C427.622 177.448 425.587 177.019 424.131 176.16C422.675 175.264 421.63 173.771 420.995 171.68C420.361 169.589 420.043 166.621 420.043 162.776C420.043 158.931 420.361 155.963 420.995 153.872C421.63 151.744 422.657 150.232 424.075 149.336C425.494 148.44 427.491 147.992 430.067 147.992C432.27 147.992 434.099 148.272 435.555 148.832C437.011 149.355 438.131 150.325 438.915 151.744H439.251V135.392H445.187V177H439.755L439.531 173.304H439.195C438.411 174.909 437.235 176.011 435.667 176.608C434.137 177.168 432.326 177.448 430.235 177.448ZM432.699 171.848C434.305 171.848 435.555 171.643 436.451 171.232C437.385 170.821 438.057 170.168 438.467 169.272C438.803 168.563 439.009 167.704 439.083 166.696C439.195 165.688 439.251 164.344 439.251 162.664C439.251 161.021 439.195 159.715 439.083 158.744C439.009 157.773 438.822 156.952 438.523 156.28C438.113 155.384 437.441 154.731 436.507 154.32C435.574 153.872 434.286 153.648 432.643 153.648C430.553 153.648 429.078 153.853 428.219 154.264C427.361 154.637 426.782 155.44 426.483 156.672C426.185 157.867 426.035 159.883 426.035 162.72C426.035 165.595 426.185 167.648 426.483 168.88C426.782 170.075 427.361 170.877 428.219 171.288C429.115 171.661 430.609 171.848 432.699 171.848Z" fill="white"/>
<path d="M479.297 177.448C475.265 177.448 472.353 177.037 470.561 176.216C468.806 175.357 467.686 173.976 467.201 172.072C466.716 170.131 466.473 166.995 466.473 162.664C466.473 158.371 466.716 155.272 467.201 153.368C467.686 151.427 468.806 150.045 470.561 149.224C472.353 148.403 475.265 147.992 479.297 147.992C483.329 147.992 486.222 148.403 487.977 149.224C489.769 150.045 490.908 151.427 491.393 153.368C491.878 155.272 492.121 158.371 492.121 162.664C492.121 166.995 491.878 170.131 491.393 172.072C490.908 173.976 489.769 175.357 487.977 176.216C486.222 177.037 483.329 177.448 479.297 177.448ZM479.297 172.184C481.649 172.184 483.273 171.979 484.169 171.568C485.065 171.12 485.606 170.317 485.793 169.16C486.017 168.003 486.129 165.837 486.129 162.664C486.129 159.491 486.017 157.344 485.793 156.224C485.606 155.067 485.065 154.283 484.169 153.872C483.273 153.461 481.649 153.256 479.297 153.256C476.945 153.256 475.321 153.461 474.425 153.872C473.529 154.283 472.969 155.067 472.745 156.224C472.558 157.344 472.465 159.491 472.465 162.664C472.465 165.837 472.558 168.003 472.745 169.16C472.969 170.317 473.529 171.12 474.425 171.568C475.321 171.979 476.945 172.184 479.297 172.184Z" fill="white"/>
<path d="M502.491 153.704H496.779V148.44H502.491V145.192C502.491 142.093 502.864 139.872 503.611 138.528C504.395 137.184 505.627 136.344 507.307 136.008C509.024 135.635 511.805 135.448 515.651 135.448V140.208C513.448 140.208 511.861 140.301 510.891 140.488C509.957 140.637 509.304 140.992 508.931 141.552C508.595 142.075 508.427 142.933 508.427 144.128V148.44H515.651V153.704H508.427V177H502.491V153.704Z" fill="white"/>
<path d="M566.717 177L558.486 148.384H558.262L550.086 177H542.301L532.333 138.472H538.717L546.502 168.936H546.782L555.238 138.472H561.846L570.47 168.936H570.75L578.142 138.472H584.47L574.445 177H566.717Z" fill="white"/>
<path d="M596.772 177.448C593.71 177.448 591.452 176.813 589.996 175.544C588.577 174.275 587.868 172.109 587.868 169.048C587.868 166.808 588.129 165.072 588.652 163.84C589.174 162.571 590.07 161.656 591.34 161.096C592.609 160.499 594.401 160.2 596.716 160.2C598.844 160.2 602.073 160.275 606.404 160.424V159.192C606.404 157.288 606.198 155.944 605.788 155.16C605.414 154.339 604.705 153.816 603.66 153.592C602.614 153.368 600.804 153.256 598.228 153.256C596.996 153.256 595.484 153.312 593.692 153.424C591.9 153.536 590.574 153.667 589.716 153.816V148.832C592.852 148.272 596.38 147.992 600.3 147.992C603.809 147.992 606.404 148.384 608.084 149.168C609.801 149.915 610.94 151.072 611.5 152.64C612.06 154.208 612.34 156.467 612.34 159.416V177H606.908L606.684 173.36H606.348C605.489 175.003 604.22 176.104 602.54 176.664C600.86 177.187 598.937 177.448 596.772 177.448ZM599.46 172.352C600.99 172.352 602.241 172.203 603.212 171.904C604.182 171.568 604.91 171.008 605.396 170.224C606.068 169.104 606.404 167.461 606.404 165.296V164.456H598.228C596.921 164.456 595.95 164.549 595.316 164.736C594.718 164.923 594.289 165.296 594.028 165.856C593.804 166.416 593.692 167.275 593.692 168.432C593.692 169.589 593.822 170.448 594.084 171.008C594.382 171.531 594.924 171.885 595.708 172.072C596.492 172.259 597.742 172.352 599.46 172.352Z" fill="white"/>
<path d="M621.265 148.44H626.697L626.921 153.536H627.369C628.041 151.445 629.124 150.008 630.617 149.224C632.148 148.403 634.182 147.992 636.721 147.992V154.152C634.182 154.152 632.222 154.525 630.841 155.272C629.497 155.981 628.545 157.12 627.985 158.688C627.462 160.219 627.201 162.365 627.201 165.128V177H621.265V148.44Z" fill="white"/>
<path d="M652.561 177.448C650.918 177.448 649.089 177.373 647.073 177.224C645.057 177.075 643.321 176.888 641.865 176.664V171.624C645.3 171.997 648.604 172.184 651.777 172.184C653.532 172.184 654.82 172.091 655.641 171.904C656.462 171.68 656.985 171.344 657.209 170.896C657.47 170.411 657.601 169.72 657.601 168.824C657.601 167.891 657.508 167.237 657.321 166.864C657.172 166.453 656.892 166.173 656.481 166.024C656.108 165.875 655.398 165.744 654.353 165.632L647.409 164.792C645.654 164.568 644.31 164.139 643.377 163.504C642.444 162.832 641.809 161.936 641.473 160.816C641.137 159.696 640.969 158.259 640.969 156.504C640.969 154.077 641.417 152.248 642.313 151.016C643.246 149.784 644.497 148.981 646.065 148.608C647.67 148.197 649.761 147.992 652.337 147.992C653.868 147.992 655.51 148.085 657.265 148.272C659.057 148.421 660.532 148.627 661.689 148.888V153.872C658.814 153.461 655.846 153.256 652.785 153.256C651.18 153.256 649.966 153.331 649.145 153.48C648.324 153.592 647.708 153.891 647.297 154.376C646.886 154.824 646.681 155.533 646.681 156.504C646.681 157.325 646.756 157.941 646.905 158.352C647.054 158.725 647.316 158.987 647.689 159.136C648.1 159.285 648.772 159.416 649.705 159.528L657.265 160.48C658.796 160.667 659.972 160.984 660.793 161.432C661.614 161.88 662.23 162.664 662.641 163.784C663.052 164.904 663.257 166.547 663.257 168.712C663.257 171.139 662.846 172.987 662.025 174.256C661.241 175.525 660.084 176.384 658.553 176.832C657.06 177.243 655.062 177.448 652.561 177.448Z" fill="white"/>
<path d="M689.13 161.656C689.13 159.08 689 157.269 688.738 156.224C688.477 155.141 687.954 154.451 687.17 154.152C686.386 153.816 685.024 153.648 683.082 153.648C681.141 153.648 679.685 153.947 678.714 154.544C677.781 155.141 677.165 156.037 676.866 157.232C676.605 158.389 676.474 160.069 676.474 162.272V177H670.538V135.392H676.474V151.912H676.866C677.538 150.605 678.565 149.635 679.946 149C681.328 148.365 683.232 148.048 685.658 148.048C688.309 148.048 690.306 148.459 691.65 149.28C692.994 150.064 693.89 151.24 694.338 152.808C694.824 154.376 695.066 156.504 695.066 159.192V177H689.13V161.656Z" fill="white"/>
<path d="M703.841 141.44V135.392H710.057V141.44H703.841ZM703.953 177V148.44H709.888V177H703.953Z" fill="white"/>
<path d="M718.773 148.44H724.261L724.429 152.192H724.821C725.605 150.587 726.762 149.485 728.293 148.888C729.861 148.291 731.671 147.992 733.725 147.992C736.338 147.992 738.373 148.44 739.829 149.336C741.285 150.195 742.33 151.669 742.965 153.76C743.599 155.851 743.917 158.819 743.917 162.664C743.917 166.509 743.599 169.496 742.965 171.624C742.367 173.715 741.359 175.208 739.941 176.104C738.522 177 736.525 177.448 733.949 177.448C731.746 177.448 729.917 177.187 728.461 176.664C727.005 176.104 725.885 175.115 725.101 173.696H724.709V188.144H718.773V148.44ZM731.317 171.792C733.407 171.792 734.882 171.605 735.741 171.232C736.637 170.821 737.234 170.019 737.533 168.824C737.831 167.629 737.981 165.595 737.981 162.72C737.981 159.845 737.831 157.811 737.533 156.616C737.234 155.384 736.637 154.581 735.741 154.208C734.882 153.797 733.407 153.592 731.317 153.592C729.749 153.592 728.498 153.797 727.565 154.208C726.631 154.619 725.959 155.235 725.549 156.056C725.213 156.765 724.989 157.643 724.877 158.688C724.765 159.733 724.709 161.077 724.709 162.72C724.709 164.363 724.765 165.707 724.877 166.752C724.989 167.76 725.194 168.619 725.493 169.328C725.903 170.187 726.575 170.821 727.509 171.232C728.442 171.605 729.711 171.792 731.317 171.792Z" fill="white"/>
<path d="M761.663 177.448C760.02 177.448 758.191 177.373 756.175 177.224C754.159 177.075 752.423 176.888 750.967 176.664V171.624C754.401 171.997 757.705 172.184 760.879 172.184C762.633 172.184 763.921 172.091 764.743 171.904C765.564 171.68 766.087 171.344 766.311 170.896C766.572 170.411 766.703 169.72 766.703 168.824C766.703 167.891 766.609 167.237 766.423 166.864C766.273 166.453 765.993 166.173 765.583 166.024C765.209 165.875 764.5 165.744 763.455 165.632L756.511 164.792C754.756 164.568 753.412 164.139 752.479 163.504C751.545 162.832 750.911 161.936 750.575 160.816C750.239 159.696 750.071 158.259 750.071 156.504C750.071 154.077 750.519 152.248 751.415 151.016C752.348 149.784 753.599 148.981 755.167 148.608C756.772 148.197 758.863 147.992 761.439 147.992C762.969 147.992 764.612 148.085 766.367 148.272C768.159 148.421 769.633 148.627 770.791 148.888V153.872C767.916 153.461 764.948 153.256 761.887 153.256C760.281 153.256 759.068 153.331 758.247 153.48C757.425 153.592 756.809 153.891 756.399 154.376C755.988 154.824 755.783 155.533 755.783 156.504C755.783 157.325 755.857 157.941 756.007 158.352C756.156 158.725 756.417 158.987 756.791 159.136C757.201 159.285 757.873 159.416 758.807 159.528L766.367 160.48C767.897 160.667 769.073 160.984 769.895 161.432C770.716 161.88 771.332 162.664 771.743 163.784C772.153 164.904 772.359 166.547 772.359 168.712C772.359 171.139 771.948 172.987 771.127 174.256C770.343 175.525 769.185 176.384 767.655 176.832C766.161 177.243 764.164 177.448 761.663 177.448Z" fill="white"/>
<path d="M778.8 155.16V148.44H785.52V155.16H778.8ZM778.8 177V170.28H785.52V177H778.8Z" fill="white"/>
<path d="M807.766 177V138.472H814.094V171.12H831.23V177H807.766Z" fill="white"/>
<path d="M860.801 164.848H842.153C842.153 167.125 842.302 168.749 842.601 169.72C842.937 170.653 843.683 171.307 844.841 171.68C846.035 172.053 848.033 172.24 850.833 172.24C853.297 172.24 856.246 172.053 859.681 171.68V176.608C858.449 176.869 856.881 177.075 854.977 177.224C853.073 177.373 851.225 177.448 849.433 177.448C845.438 177.448 842.507 177 840.641 176.104C838.774 175.171 837.561 173.715 837.001 171.736C836.441 169.757 836.161 166.771 836.161 162.776C836.161 158.968 836.441 156.056 837.001 154.04C837.561 152.024 838.755 150.512 840.585 149.504C842.414 148.496 845.233 147.992 849.041 147.992C852.699 147.992 855.35 148.496 856.993 149.504C858.673 150.512 859.718 151.987 860.129 153.928C860.577 155.832 860.801 158.781 860.801 162.776V164.848ZM848.873 153.2C846.857 153.2 845.382 153.405 844.449 153.816C843.553 154.189 842.955 154.861 842.657 155.832C842.358 156.803 842.19 158.371 842.153 160.536H855.145V160.424C855.145 158.296 854.958 156.728 854.585 155.72C854.211 154.712 853.595 154.04 852.737 153.704C851.915 153.368 850.627 153.2 848.873 153.2Z" fill="white"/>
<path d="M879.258 188.536C877.429 188.536 875.581 188.48 873.714 188.368C871.885 188.256 870.429 188.125 869.346 187.976V183.048C872.482 183.197 875.319 183.272 877.858 183.272C880.621 183.272 882.599 183.048 883.794 182.6C884.989 182.189 885.754 181.424 886.09 180.304C886.463 179.221 886.65 177.411 886.65 174.872V173.416H886.37C885.623 174.835 884.522 175.824 883.066 176.384C881.647 176.907 879.837 177.168 877.634 177.168C875.021 177.168 872.986 176.739 871.53 175.88C870.074 175.021 869.029 173.565 868.394 171.512C867.759 169.459 867.442 166.528 867.442 162.72C867.442 158.875 867.759 155.907 868.394 153.816C869.029 151.688 870.074 150.195 871.53 149.336C873.023 148.44 875.077 147.992 877.69 147.992C879.743 147.992 881.535 148.291 883.066 148.888C884.634 149.485 885.81 150.587 886.594 152.192H886.93L887.154 148.44H892.586V173.528C892.586 177.485 892.287 180.472 891.69 182.488C891.13 184.541 889.898 186.053 887.994 187.024C886.127 188.032 883.215 188.536 879.258 188.536ZM880.098 171.68C881.591 171.68 882.786 171.512 883.682 171.176C884.578 170.803 885.25 170.261 885.698 169.552C886.109 168.88 886.37 168.04 886.482 167.032C886.594 165.987 886.65 164.531 886.65 162.664C886.65 160.797 886.594 159.36 886.482 158.352C886.37 157.307 886.109 156.448 885.698 155.776C885.25 155.029 884.578 154.488 883.682 154.152C882.786 153.779 881.591 153.592 880.098 153.592C878.007 153.592 876.514 153.797 875.618 154.208C874.759 154.581 874.181 155.365 873.882 156.56C873.583 157.755 873.434 159.789 873.434 162.664C873.434 165.501 873.583 167.517 873.882 168.712C874.181 169.907 874.759 170.709 875.618 171.12C876.514 171.493 878.007 171.68 880.098 171.68Z" fill="white"/>
<path d="M925.004 164.848H906.356C906.356 167.125 906.505 168.749 906.804 169.72C907.14 170.653 907.886 171.307 909.044 171.68C910.238 172.053 912.236 172.24 915.036 172.24C917.5 172.24 920.449 172.053 923.884 171.68V176.608C922.652 176.869 921.084 177.075 919.18 177.224C917.276 177.373 915.428 177.448 913.636 177.448C909.641 177.448 906.71 177 904.844 176.104C902.977 175.171 901.764 173.715 901.204 171.736C900.644 169.757 900.364 166.771 900.364 162.776C900.364 158.968 900.644 156.056 901.204 154.04C901.764 152.024 902.958 150.512 904.788 149.504C906.617 148.496 909.436 147.992 913.244 147.992C916.902 147.992 919.553 148.496 921.196 149.504C922.876 150.512 923.921 151.987 924.332 153.928C924.78 155.832 925.004 158.781 925.004 162.776V164.848ZM913.076 153.2C911.06 153.2 909.585 153.405 908.652 153.816C907.756 154.189 907.158 154.861 906.86 155.832C906.561 156.803 906.393 158.371 906.356 160.536H919.348V160.424C919.348 158.296 919.161 156.728 918.788 155.72C918.414 154.712 917.798 154.04 916.94 153.704C916.118 153.368 914.83 153.2 913.076 153.2Z" fill="white"/>
<path d="M951.357 161.656C951.357 159.08 951.226 157.269 950.965 156.224C950.704 155.141 950.181 154.451 949.397 154.152C948.613 153.816 947.25 153.648 945.309 153.648C943.368 153.648 941.912 153.947 940.941 154.544C940.008 155.141 939.392 156.037 939.093 157.232C938.832 158.389 938.701 160.069 938.701 162.272V177H932.765V148.44H938.253L938.421 152.192H938.869C939.541 150.773 940.586 149.728 942.005 149.056C943.461 148.347 945.44 147.992 947.941 147.992C950.554 147.992 952.533 148.403 953.877 149.224C955.221 150.045 956.117 151.24 956.565 152.808C957.05 154.339 957.293 156.448 957.293 159.136V177H951.357V161.656Z" fill="white"/>
<path d="M975.251 177.448C972.638 177.448 970.603 177.019 969.147 176.16C967.691 175.264 966.646 173.771 966.011 171.68C965.376 169.589 965.059 166.621 965.059 162.776C965.059 158.931 965.376 155.963 966.011 153.872C966.646 151.744 967.672 150.232 969.091 149.336C970.51 148.44 972.507 147.992 975.083 147.992C977.286 147.992 979.115 148.272 980.571 148.832C982.027 149.355 983.147 150.325 983.931 151.744H984.267V135.392H990.203V177H984.771L984.547 173.304H984.211C983.427 174.909 982.251 176.011 980.683 176.608C979.152 177.168 977.342 177.448 975.251 177.448ZM977.715 171.848C979.32 171.848 980.571 171.643 981.467 171.232C982.4 170.821 983.072 170.168 983.483 169.272C983.819 168.563 984.024 167.704 984.099 166.696C984.211 165.688 984.267 164.344 984.267 162.664C984.267 161.021 984.211 159.715 984.099 158.744C984.024 157.773 983.838 156.952 983.539 156.28C983.128 155.384 982.456 154.731 981.523 154.32C980.59 153.872 979.302 153.648 977.659 153.648C975.568 153.648 974.094 153.853 973.235 154.264C972.376 154.637 971.798 155.44 971.499 156.672C971.2 157.867 971.051 159.883 971.051 162.72C971.051 165.595 971.2 167.648 971.499 168.88C971.798 170.075 972.376 170.877 973.235 171.288C974.131 171.661 975.624 171.848 977.715 171.848Z" fill="white"/>
<path d="M1009.07 177.448C1007.43 177.448 1005.6 177.373 1003.58 177.224C1001.56 177.075 999.829 176.888 998.373 176.664V171.624C1001.81 171.997 1005.11 172.184 1008.28 172.184C1010.04 172.184 1011.33 172.091 1012.15 171.904C1012.97 171.68 1013.49 171.344 1013.72 170.896C1013.98 170.411 1014.11 169.72 1014.11 168.824C1014.11 167.891 1014.02 167.237 1013.83 166.864C1013.68 166.453 1013.4 166.173 1012.99 166.024C1012.62 165.875 1011.91 165.744 1010.86 165.632L1003.92 164.792C1002.16 164.568 1000.82 164.139 999.885 163.504C998.952 162.832 998.317 161.936 997.981 160.816C997.645 159.696 997.477 158.259 997.477 156.504C997.477 154.077 997.925 152.248 998.821 151.016C999.754 149.784 1001 148.981 1002.57 148.608C1004.18 148.197 1006.27 147.992 1008.84 147.992C1010.38 147.992 1012.02 148.085 1013.77 148.272C1015.56 148.421 1017.04 148.627 1018.2 148.888V153.872C1015.32 153.461 1012.35 153.256 1009.29 153.256C1007.69 153.256 1006.47 153.331 1005.65 153.48C1004.83 153.592 1004.22 153.891 1003.8 154.376C1003.39 154.824 1003.19 155.533 1003.19 156.504C1003.19 157.325 1003.26 157.941 1003.41 158.352C1003.56 158.725 1003.82 158.987 1004.2 159.136C1004.61 159.285 1005.28 159.416 1006.21 159.528L1013.77 160.48C1015.3 160.667 1016.48 160.984 1017.3 161.432C1018.12 161.88 1018.74 162.664 1019.15 163.784C1019.56 164.904 1019.76 166.547 1019.76 168.712C1019.76 171.139 1019.35 172.987 1018.53 174.256C1017.75 175.525 1016.59 176.384 1015.06 176.832C1013.57 177.243 1011.57 177.448 1009.07 177.448Z" fill="white"/>
</svg>
